# xmcd
#
# Track frame offsets:
#	182
#	15177
#	32702
#	54265
#	73950
#	92050
#	109930
#	127470
#	146842
#	163300
#	184645
#	198455
#
# Disc length: 2885 seconds
# Revision: 0
# Processed by: cddbd v1.5.2PL0 Copyright (c) Steve Scherf et al.
# Submitted via: dBpowerAMP V12.0
#
DISCID=b10b430c
DTITLE=Big Al Downing - Back To My Roots
DYEAR=1994
DGENRE=R&B
TTITLE0=Long Trucking Night
TTITLE1=Sneaky, Freaky People
TTITLE2=Please Help Me Mama
TTITLE3=Daddy's Words
TTITLE4=Give A Hand To The Lady
TTITLE5=I Always Come Back To Loving You
TTITLE6=Everybody's Got A Dream
TTITLE7=Don't Even Think About It
TTITLE8=Be Hop Cat
TTITLE9=Love's Just A Suitcase In My Hand
TTITLE10=Mama Was A Preacher
TTITLE11=Don't You Want To Go To Love With Me
EXTD=
EXTT0=
EXTT1=
EXTT2=
EXTT3=
EXTT4=
EXTT5=
EXTT6=
EXTT7=
EXTT8=
EXTT9=
EXTT10=
EXTT11=
PLAYORDER=
